<svg width="26" height="26" viewBox="0 0 26 26" fill="none" xmlns="http://www.w3.org/2000/svg">
<path fill-rule="evenodd" clip-rule="evenodd" d="M0.464844 13.0001C0.464844 11.3539 0.78909 9.72376 1.41907 8.20286C2.04905 6.68196 2.97242 5.30003 4.13647 4.13598C5.30052 2.97193 6.68244 2.04856 8.20335 1.41858C9.72425 0.788601 11.3543 0.464355 13.0006 0.464355C14.6468 0.464355 16.2769 0.788601 17.7978 1.41858C19.3187 2.04856 20.7006 2.97193 21.8646 4.13598C23.0287 5.30003 23.9521 6.68196 24.582 8.20286C25.212 9.72376 25.5363 11.3539 25.5363 13.0001C25.5363 16.3247 24.2155 19.5133 21.8646 21.8642C19.5137 24.2151 16.3252 25.5358 13.0006 25.5358C9.67588 25.5358 6.48737 24.2151 4.13647 21.8642C1.78557 19.5133 0.464844 16.3247 0.464844 13.0001ZM17.1828 20.5475L19.1236 5.81664L3.95999 13.1245L8.4487 14.7514L13.437 10.8959C13.5336 10.8214 13.6439 10.7667 13.7616 10.7348C13.8793 10.7029 14.0022 10.6945 14.1232 10.7101C14.2442 10.7258 14.3609 10.765 14.4667 10.8257C14.5725 10.8865 14.6653 10.9674 14.7398 11.064C14.8143 11.1606 14.869 11.2709 14.9009 11.3886C14.9328 11.5064 14.9412 11.6292 14.9256 11.7502C14.9099 11.8712 14.8707 11.9879 14.8099 12.0937C14.7492 12.1995 14.6683 12.2923 14.5717 12.3668L10.434 15.5629V20.6255L13.5633 17.6466L17.1828 20.5475Z" fill="black"/>
</svg>
