<svg width="26" height="26" viewBox="0 0 26 26" fill="none" xmlns="http://www.w3.org/2000/svg">
<g clip-path="url(#clip0_278_211)">
<path d="M13.5488 0C19.4259 0 22.3808 -4.58956e-06 24.1904 1.8252C26 3.6504 26 6.58973 26 12.4512V13.5488C26 19.4114 26.0156 22.3496 24.1904 24.1748C22.3652 26 19.4259 26 13.5488 26H12.4668C6.58872 26 3.6504 26 1.8252 24.1748C1.93694e-06 22.3496 0 19.4114 0 13.5488V12.4512C0 6.58765 1.93694e-06 3.6504 1.8252 1.8252C3.6504 1.87006e-06 6.58872 0 12.4668 0H13.5488ZM4.39355 7.91992C4.53197 14.6787 8.08979 18.746 13.9521 18.7461H14.292V14.8789C16.4261 15.0952 18.0199 16.6889 18.6699 18.7461H21.7471C20.9121 15.669 18.7471 13.9675 17.4014 13.3174C18.747 12.5134 20.6483 10.5643 21.0967 7.91992H18.2988C17.7102 10.0696 15.9622 12.018 14.292 12.2031V7.91992H11.4463V15.4209C9.71472 14.9914 7.45592 12.8847 7.36328 7.91992H4.39355Z" fill="black"/>
</g>
<defs>
<clipPath id="clip0_278_211">
<rect width="26" height="26" fill="white"/>
</clipPath>
</defs>
</svg>
