<svg width="26" height="26" viewBox="0 0 26 26" fill="none" xmlns="http://www.w3.org/2000/svg">
<g clip-path="url(#clip0_278_207)">
<path d="M26 12.6655C26 19.66 20.2857 25.3302 13.2353 25.3302C10.9979 25.3302 8.89614 24.7579 7.06655 23.7558L0 26L2.30352 19.2031C1.14201 17.2955 0.473082 15.0555 0.473082 12.6647C0.47393 5.6702 6.18652 0 13.237 0C20.2866 0.00169563 26 5.67105 26 12.6655ZM13.2344 2.0195C7.31751 2.0195 2.50445 6.7961 2.50445 12.6681C2.50445 14.9979 3.26409 17.1547 4.54854 18.9097L3.20899 22.8631L7.33107 21.5532C9.02671 22.6655 11.0555 23.3133 13.2344 23.3133C19.1513 23.3133 23.9661 18.5375 23.9661 12.6655C23.9678 6.7961 19.1522 2.0195 13.2344 2.0195ZM19.6812 15.5829C19.6015 15.4549 19.393 15.3769 19.081 15.2209C18.7698 15.0649 17.2293 14.3145 16.9436 14.2128C16.6554 14.1085 16.4468 14.056 16.2382 14.3671C16.0322 14.6783 15.432 15.3769 15.248 15.5854C15.0657 15.7931 14.8834 15.8194 14.5706 15.666C14.2577 15.5083 13.2488 15.1827 12.0534 14.1255C11.1234 13.3014 10.4951 12.2866 10.3137 11.9754C10.1297 11.6651 10.295 11.4972 10.4502 11.3429C10.5901 11.2031 10.763 10.9801 10.9199 10.7978C11.0767 10.6172 11.1284 10.4892 11.2327 10.2815C11.3353 10.0738 11.2836 9.89318 11.2064 9.73633C11.1284 9.58033 10.5036 8.05426 10.2416 7.43281C9.98135 6.81221 9.72107 6.91479 9.53794 6.91479C9.35566 6.91479 9.1471 6.88936 8.93853 6.88936C8.72997 6.88936 8.39084 6.96482 8.10513 7.27596C7.81942 7.58711 7.0106 8.33743 7.0106 9.8652C7.0106 11.3947 8.13056 12.869 8.28741 13.0759C8.4451 13.2819 10.4527 16.5197 13.6329 17.7626C16.8148 19.0047 16.8148 18.5901 17.3879 18.5375C17.9627 18.485 19.2395 17.7872 19.4989 17.0632C19.7601 16.3357 19.7601 15.7126 19.6812 15.5829Z" fill="black"/>
</g>
<defs>
<clipPath id="clip0_278_207">
<rect width="26" height="26" fill="white"/>
</clipPath>
</defs>
</svg>
