<svg width="34" height="34" viewBox="0 0 34 34" fill="none" xmlns="http://www.w3.org/2000/svg">
<g clip-path="url(#clip0_335_129)">
<path d="M33.3931 16.5036C33.3931 25.4003 26.1248 32.6125 17.157 32.6125C14.3111 32.6125 11.6378 31.8846 9.31062 30.6099L0.322266 33.4644L3.25224 24.819C1.77485 22.3926 0.924005 19.5435 0.924005 16.5025C0.925084 7.6058 8.19125 0.393555 17.1591 0.393555C26.1259 0.395711 33.3931 7.60688 33.3931 16.5036ZM17.1559 2.96227C9.62982 2.96227 3.50782 9.0379 3.50782 16.5068C3.50782 19.4702 4.47405 22.2136 6.10781 24.4459L4.40396 29.4744L9.64707 27.8083C11.8038 29.2231 14.3844 30.047 17.1559 30.047C24.6819 30.047 30.8061 23.9725 30.8061 16.5036C30.8083 9.0379 24.683 2.96227 17.1559 2.96227ZM25.3559 20.2143C25.2546 20.0515 24.9893 19.9522 24.5924 19.7538C24.1967 19.5554 22.2372 18.601 21.8738 18.4716C21.5072 18.339 21.2419 18.2721 20.9766 18.6679C20.7146 19.0637 19.9511 19.9522 19.717 20.2175C19.4852 20.4817 19.2533 20.5152 18.8554 20.32C18.4575 20.1194 17.1742 19.7053 15.6537 18.3605C14.4707 17.3124 13.6716 16.0215 13.4408 15.6258C13.2068 15.2311 13.4171 15.0176 13.6145 14.8213C13.7924 14.6434 14.0124 14.3597 14.2119 14.1279C14.4114 13.8982 14.4772 13.7354 14.6098 13.4711C14.7403 13.2069 14.6745 12.9772 14.5764 12.7777C14.4772 12.5793 13.6824 10.6382 13.3492 9.84777C13.0181 9.05839 12.687 9.18887 12.4541 9.18887C12.2223 9.18887 11.957 9.15652 11.6917 9.15652C11.4264 9.15652 10.9951 9.2525 10.6316 9.64827C10.2682 10.044 9.23944 10.9984 9.23944 12.9417C9.23944 14.8871 10.664 16.7624 10.8635 17.0255C11.0641 17.2876 13.6177 21.4059 17.6627 22.9868C21.7099 24.5667 21.7099 24.0393 22.4389 23.9725C23.17 23.9056 24.7941 23.0181 25.1241 22.0972C25.4562 21.1719 25.4562 20.3793 25.3559 20.2143Z" fill="white"/>
</g>
<defs>
<clipPath id="clip0_335_129">
<rect width="33.0709" height="33.0709" fill="white" transform="translate(0.322266 0.393555)"/>
</clipPath>
</defs>
</svg>
