<svg width="37" height="38" viewBox="0 0 37 38" fill="none" xmlns="http://www.w3.org/2000/svg">
<path d="M6.49799 19.38L6.48731 19.2274C6.48695 18.9507 6.58692 18.6832 6.76869 18.4745C6.95047 18.2657 7.20173 18.13 7.47592 18.0924L7.63154 18.0817L27.0011 18.0832L22.087 13.1706C21.8932 12.9769 21.7754 12.7201 21.7549 12.4468C21.7345 12.1735 21.8128 11.902 21.9756 11.6816L22.0855 11.5535C22.2793 11.3593 22.5364 11.2412 22.81 11.2208C23.0836 11.2003 23.3555 11.2789 23.576 11.4421L23.7042 11.5519L30.5695 18.4127C30.7633 18.6065 30.8812 18.8633 30.9016 19.1366C30.922 19.4098 30.8437 19.6814 30.6809 19.9018L30.5695 20.0299L23.7042 26.9014C23.4997 27.1043 23.2263 27.2226 22.9385 27.2327C22.6507 27.2428 22.3696 27.1441 22.1514 26.9561C21.9332 26.7681 21.794 26.5048 21.7614 26.2187C21.7288 25.9325 21.8053 25.6446 21.9756 25.4124L22.0855 25.2842L26.995 20.3717H7.63154C7.35457 20.3716 7.08705 20.271 6.8786 20.0886C6.67015 19.9063 6.53491 19.6545 6.49799 19.38Z" fill="#EF286F"/>
</svg>
