<svg width="38" height="38" viewBox="0 0 38 38" fill="none" xmlns="http://www.w3.org/2000/svg">
<path d="M31.4249 19.38L31.4355 19.2274C31.4359 18.9507 31.3359 18.6832 31.1542 18.4745C30.9724 18.2657 30.7211 18.13 30.4469 18.0924L30.2913 18.0817L10.9218 18.0832L15.8359 13.1706C16.0296 12.9769 16.1475 12.7201 16.1679 12.4468C16.1883 12.1735 16.11 11.902 15.9472 11.6816L15.8374 11.5535C15.6436 11.3593 15.3864 11.2412 15.1128 11.2208C14.8392 11.2003 14.5674 11.2789 14.3468 11.4421L14.2187 11.5519L7.3533 18.4127C7.15952 18.6065 7.0417 18.8633 7.02126 19.1366C7.00082 19.4098 7.07912 19.6814 7.24193 19.9018L7.3533 20.0299L14.2187 26.9014C14.4231 27.1043 14.6965 27.2226 14.9843 27.2327C15.2722 27.2428 15.5532 27.1441 15.7714 26.9561C15.9896 26.7681 16.1289 26.5048 16.1615 26.2187C16.1941 25.9325 16.1176 25.6446 15.9472 25.4124L15.8374 25.2842L10.9279 20.3717H30.2913C30.5683 20.3716 30.8358 20.271 31.0443 20.0886C31.2527 19.9063 31.3879 19.6545 31.4249 19.38Z" fill="#EF286F"/>
</svg>
