<svg width="34" height="34" viewBox="0 0 34 34" fill="none" xmlns="http://www.w3.org/2000/svg">
<g clip-path="url(#clip0_279_318)">
<path fill-rule="evenodd" clip-rule="evenodd" d="M0.607422 17C0.607422 14.8473 1.03144 12.7156 1.85525 10.7267C2.67907 8.73785 3.88656 6.93072 5.40878 5.4085C6.931 3.88628 8.73813 2.67879 10.727 1.85497C12.7159 1.03116 14.8475 0.607142 17.0003 0.607142C19.153 0.607142 21.2847 1.03116 23.2736 1.85497C25.2624 2.67879 27.0696 3.88628 28.5918 5.4085C30.114 6.93072 31.3215 8.73785 32.1453 10.7267C32.9691 12.7156 33.3931 14.8473 33.3931 17C33.3931 21.3477 31.666 25.5172 28.5918 28.5915C25.5175 31.6658 21.3479 33.3929 17.0003 33.3929C12.6526 33.3929 8.48304 31.6658 5.40878 28.5915C2.33452 25.5172 0.607422 21.3477 0.607422 17ZM22.4694 26.8697L25.0073 7.60629L5.17799 17.1627L11.0478 19.2901L17.571 14.2484C17.6973 14.151 17.8415 14.0794 17.9955 14.0377C18.1495 13.996 18.3101 13.9851 18.4683 14.0055C18.6265 14.0259 18.7792 14.0773 18.9175 14.1567C19.0559 14.2361 19.1772 14.3419 19.2746 14.4682C19.3721 14.5945 19.4437 14.7388 19.4854 14.8927C19.527 15.0467 19.538 15.2074 19.5176 15.3656C19.4972 15.5238 19.4458 15.6764 19.3664 15.8147C19.287 15.9531 19.1811 16.0744 19.0549 16.1719L13.644 20.3514V26.9717L17.7361 23.0763L22.4694 26.8697Z" fill="black"/>
</g>
<defs>
<clipPath id="clip0_279_318">
<rect width="34" height="34" fill="white"/>
</clipPath>
</defs>
</svg>
