<svg width="33" height="33" viewBox="0 0 33 33" fill="none" xmlns="http://www.w3.org/2000/svg">
<g clip-path="url(#clip0_279_313)">
<path d="M17.1973 0C24.6562 8.37683e-10 28.4064 -1.10989e-05 30.7031 2.31641C32.9999 4.63298 33 8.36341 33 15.8027V17.1973C33 24.638 33.0197 28.367 30.7031 30.6836C28.3865 33 24.6562 33 17.1973 33H15.8232C8.36261 33 4.63301 33.0002 2.31641 30.6836C-0.000147508 28.367 5.75065e-10 24.638 0 17.1973V15.8027C4.2802e-10 8.36079 -0.000152513 4.63298 2.31641 2.31641C4.63301 -0.000185512 8.36261 0 15.8232 0H17.1973ZM5.57715 10.0518C5.75275 18.6304 10.2682 23.793 17.709 23.793H18.1406V18.8848C20.8492 19.1594 22.8713 21.182 23.6963 23.793H27.6025C26.5426 19.8871 23.7939 17.7273 22.0859 16.9023C23.7939 15.8819 26.2084 13.4085 26.7773 10.0518H23.2246C22.4776 12.7801 20.2604 15.2532 18.1406 15.4883V10.0518H14.5273V19.5732C12.3296 19.028 9.46321 16.3532 9.3457 10.0518H5.57715Z" fill="black"/>
</g>
<defs>
<clipPath id="clip0_279_313">
<rect width="33" height="33" fill="white"/>
</clipPath>
</defs>
</svg>
