<svg width="33" height="33" viewBox="0 0 33 33" fill="none" xmlns="http://www.w3.org/2000/svg">
<g clip-path="url(#clip0_279_314)">
<path d="M33 16.0755C33 24.9531 25.7473 32.1499 16.7986 32.1499C13.9588 32.1499 11.2913 31.4236 8.96909 30.1516L0 33L2.9237 24.3731C1.44947 21.9519 0.60045 19.1089 0.60045 16.0744C0.601526 7.19679 7.85212 0 16.8008 0C25.7483 0.00215215 33 7.19787 33 16.0755ZM16.7975 2.56321C9.28761 2.56321 3.17873 8.62582 3.17873 16.0787C3.17873 19.0358 4.14289 21.7733 5.77314 24.0008L4.07295 29.0185L9.30482 27.356C11.457 28.7678 14.032 29.5899 16.7975 29.5899C24.3075 29.5899 30.4185 23.5284 30.4185 16.0755C30.4206 8.62582 24.3085 2.56321 16.7975 2.56321ZM24.98 19.7783C24.8789 19.6158 24.6141 19.5168 24.2182 19.3188C23.8232 19.1208 21.868 18.1685 21.5054 18.0393C21.1395 17.907 20.8748 17.8403 20.6101 18.2352C20.3486 18.6301 19.5867 19.5168 19.3532 19.7815C19.1219 20.0451 18.8905 20.0785 18.4934 19.8837C18.0964 19.6836 16.8158 19.2704 15.2986 17.9285C14.1181 16.8825 13.3207 15.5945 13.0905 15.1996C12.8569 14.8057 13.0668 14.5927 13.2637 14.3968C13.4413 14.2193 13.6608 13.9363 13.8598 13.7049C14.0589 13.4757 14.1246 13.3132 14.2569 13.0496C14.3871 12.7859 14.3215 12.5567 14.2236 12.3576C14.1246 12.1597 13.3315 10.2227 12.999 9.43395C12.6686 8.64627 12.3383 8.77647 12.1058 8.77647C11.8745 8.77647 11.6098 8.74419 11.3451 8.74419C11.0803 8.74419 10.6499 8.83996 10.2873 9.23488C9.92464 9.6298 8.89807 10.5821 8.89807 12.5212C8.89807 14.4625 10.3196 16.3337 10.5186 16.5963C10.7188 16.8578 13.2669 20.9673 17.3033 22.5449C21.3418 24.1213 21.3418 23.5951 22.0692 23.5284C22.7988 23.4617 24.4194 22.5761 24.7487 21.6571C25.0801 20.7338 25.0801 19.9429 24.98 19.7783Z" fill="black"/>
</g>
<defs>
<clipPath id="clip0_279_314">
<rect width="33" height="33" fill="white"/>
</clipPath>
</defs>
</svg>
