<svg width="22" height="22" viewBox="0 0 22 22" fill="none" xmlns="http://www.w3.org/2000/svg">
<path d="M18.5622 2.521H3.43717C3.19406 2.521 2.9609 2.61757 2.78899 2.78948C2.61708 2.96139 2.52051 3.19455 2.52051 3.43766V18.5627C2.52051 18.8058 2.61708 19.0389 2.78899 19.2108C2.9609 19.3828 3.19406 19.4793 3.43717 19.4793H18.5622C18.8053 19.4793 19.0384 19.3828 19.2104 19.2108C19.3823 19.0389 19.4788 18.8058 19.4788 18.5627V3.43766C19.4788 3.19455 19.3823 2.96139 19.2104 2.78948C19.0384 2.61757 18.8053 2.521 18.5622 2.521Z" stroke="#BA8694" stroke-width="1.5" stroke-linecap="round" stroke-linejoin="round"/>
<path d="M11.7234 16.5651C11.7041 14.3702 12.2101 12.5566 14.9684 12.6707C18.9041 2.64143 2.85784 3.02368 7.13547 12.6106C8.43255 12.53 10.5821 13.3023 10.2155 16.8026M19.4788 15.3446L2.52051 18.0139M2.52051 5.06006L8.17863 6.10964M14.829 7.11798L19.4788 7.79677" stroke="#BA8694" stroke-width="1.5" stroke-linecap="round" stroke-linejoin="round"/>
</svg>
