<svg width="31" height="32" viewBox="0 0 31 32" fill="none" xmlns="http://www.w3.org/2000/svg">
<path d="M13.9045 1.49654C14.3559 0.151224 16.2587 0.151227 16.7101 1.49654L19.4521 9.66944C19.6484 10.2546 20.1873 10.6564 20.8041 10.6775L29.0816 10.9617C30.439 11.0083 31.0217 12.7061 29.9789 13.5764L23.2691 19.1765C22.8258 19.5464 22.6382 20.1404 22.7886 20.6978L25.1179 29.3316C25.4818 30.6804 23.9458 31.7358 22.8172 30.9123L16.1794 26.0692C15.6598 25.69 14.9548 25.69 14.4352 26.0692L7.79738 30.9123C6.66883 31.7358 5.13283 30.6804 5.49672 29.3316L7.826 20.6978C7.97639 20.1404 7.7888 19.5464 7.34553 19.1765L0.635662 13.5764C-0.407118 12.7061 0.17553 11.0083 1.53297 10.9617L9.81048 10.6775C10.4273 10.6564 10.9662 10.2546 11.1625 9.66944L13.9045 1.49654Z" fill="#FAE168"/>
</svg>
